<svg width="40" height="44" viewBox="0 0 40 44" fill="none" xmlns="http://www.w3.org/2000/svg">
<path d="M1.81878 8.534L1.45985 8.67358L1.50317 9.05624L4.50317 35.5562L4.53601 35.8463L4.80473 35.9603L21.3047 42.9603L21.5172 43.0504L21.7236 42.9472L37.7236 34.9472L37.9944 34.8118L37.9999 34.5091L38.4999 7.00909L38.507 6.62189L38.1338 6.51824L20.1338 1.51824L19.9737 1.47376L19.8188 1.534L1.81878 8.534Z" fill="#00998C" stroke="black"/>
<path d="M6 11.5L20 5.5L34 10L34.5 32L21.5 38.5L8 33L6 11.5Z" fill="#D0163F"/>
<path d="M34 10L38 7L37.5 34.5L34.5 32L34 10Z" fill="#E0363A"/>
<path d="M20 2L38 7L34 10L20 5.5V2Z" fill="#F96651"/>
<path d="M20 2V5.5L6 11.5L2 9L20 2Z" fill="#F6FAFC"/>
<path d="M2 9L6 11.5L8 33L5 35.5L2 9Z" fill="#E0363A"/>
<path d="M8 33L21.5 38.5V42.5L5 35.5L8 33Z" fill="#D0163F"/>
<path d="M21.5 38.5L34.5 32L37.5 34.5L21.5 42.5V38.5Z" fill="#A60C49"/>
</svg>
